# xmcd CD database file
#
# Track frame offsets:
#	150
#	12414
#	22771
#	34910
#	50319
#	62816
#	73554
#	87491
#	98436
#	111884
#	123593
#	135542
#	146649
#	159818
#	174349
#	187366
#	200797
#	217214
#
# Disc length: 3057 seconds
#
# Revision: 2
# Processed by: cddbd v1.4b42PL1 Copyright (c) Steve Scherf et al.
# Submitted via: CDex 1.40Beta5
#
DISCID=050bef12
DTITLE=Tom Jones - The Great Tom Jones - 3 CD Set - Disc 2
DYEAR=1900
DGENRE=Blues
TTITLE0=You Don't have to Say You Love me
TTITLE1=Heartache Tonight
TTITLE2=Funny How Time Slips Away
TTITLE3=Georgia on My Mind
TTITLE4=Don't Cry For Me Argentina
TTITLE5=Say You'll Stay Until Tomorrow
TTITLE6=Bridge Over Troubled Water
TTITLE7=Green Greeb grass Of Home
TTITLE8=I Write the Songs
TTITLE9=You Are The Sunshine of My Life
TTITLE10=Without Love (There is Nothing)
TTITLE11=Over The Rainbow
TTITLE12=As Time Goes By
TTITLE13=Help Me Make It Through The Night
TTITLE14=I'll Never love This Way Again
TTITLE15=Yesterday
TTITLE16=She's A Lady
TTITLE17=All By Myself
EXTD=Manufactured and Distributed under licence by REDEX  Entertainment Pty \n
EXTD=Ltd\nRXBOX31055  -- AMCOS ID3G:   0
EXTT0=
EXTT1=
EXTT2=
EXTT3=
EXTT4=
EXTT5=
EXTT6=
EXTT7=
EXTT8=
EXTT9=
EXTT10=
EXTT11=
EXTT12=
EXTT13=
EXTT14=
EXTT15=
EXTT16=
EXTT17=
PLAYORDER=
